<?xml version="1.0" encoding="UTF-8" standalone="no"?>
<svg
   xmlns:dc="http://purl.org/dc/elements/1.1/"
   xmlns:cc="http://creativecommons.org/ns#"
   xmlns:rdf="http://www.w3.org/1999/02/22-rdf-syntax-ns#"
   xmlns:svg="http://www.w3.org/2000/svg"
   xmlns="http://www.w3.org/2000/svg"
   version="1.1"
   id="svg2"
   viewBox="0 0 744.09448819 1052.3622047"
   height="297mm"
   width="210mm">
  <defs
     id="defs4" />
  <metadata
     id="metadata7">
    <rdf:RDF>
      <cc:Work
         rdf:about="">
        <dc:format>image/svg+xml</dc:format>
        <dc:type
           rdf:resource="http://purl.org/dc/dcmitype/StillImage" />
        <dc:title></dc:title>
      </cc:Work>
    </rdf:RDF>
  </metadata>
  <g
     style="display:inline"
     id="layer1">
    <path
       id="rect3347"
       d="m 77.736431,283.66616 0,-106.42219 m 0,-48.09094 0,-77.897322 102.116039,0 0,28.053048 m 0,46.963824 0,53.31783 m 0,101.52033 0,51.51778 m 0,49.49747 0,25.80423 -102.116039,0 0,-79.66988"
       style="fill:none;fill-rule:evenodd;stroke:#000000;stroke-width:3;stroke-linecap:butt;stroke-linejoin:miter;stroke-miterlimit:4;stroke-dasharray:none;stroke-opacity:1" />
    <path
       id="path4155"
       d="M 85.862971,147.51807 155.05841,102.81882"
       style="fill:none;fill-rule:evenodd;stroke:#000000;stroke-width:3;stroke-linecap:round;stroke-linejoin:miter;stroke-miterlimit:4;stroke-dasharray:none;stroke-opacity:1" />
    <path
       id="path4155-3"
       d="M 85.862971,300.0511 156.57364,254.08916"
       style="fill:none;fill-rule:evenodd;stroke:#000000;stroke-width:3;stroke-linecap:round;stroke-linejoin:miter;stroke-miterlimit:4;stroke-dasharray:none;stroke-opacity:1" />
    <circle
       r="9.5964489"
       cy="154.84166"
       cx="78.791901"
       id="path4172"
       style="fill:none;fill-opacity:1;stroke:#000000;stroke-width:3;stroke-miterlimit:4;stroke-dasharray:none;stroke-opacity:1" />
    <circle
       r="9.5964489"
       cy="306.58881"
       cx="79.086273"
       id="path4172-6"
       style="fill:none;fill-opacity:1;stroke:#000000;stroke-width:3;stroke-miterlimit:4;stroke-dasharray:none;stroke-opacity:1" />
    <circle
       r="9.5964489"
       cy="103.37893"
       cx="180.25458"
       id="path4172-5"
       style="fill:none;fill-opacity:1;stroke:#000000;stroke-width:3;stroke-miterlimit:4;stroke-dasharray:none;stroke-opacity:1" />
    <circle
       r="9.5964489"
       cy="205.07953"
       cx="180.0918"
       id="path4172-5-3"
       style="fill:none;fill-opacity:1;stroke:#000000;stroke-width:3;stroke-miterlimit:4;stroke-dasharray:none;stroke-opacity:1" />
    <circle
       r="9.5964489"
       cy="255.71255"
       cx="180.2402"
       id="path4172-5-3-5"
       style="fill:none;fill-opacity:1;stroke:#000000;stroke-width:3;stroke-miterlimit:4;stroke-dasharray:none;stroke-opacity:1" />
    <circle
       r="9.5964489"
       cy="357.37451"
       cx="180.15768"
       id="path4172-5-3-5-6"
       style="fill:none;fill-opacity:1;stroke:#000000;stroke-width:3;stroke-miterlimit:4;stroke-dasharray:none;stroke-opacity:1" />
    <path
       id="path4266-2-1"
       d="m 181.3108,356.66024 51.26524,0"
       style="fill:none;fill-rule:evenodd;stroke:#000000;stroke-width:3;stroke-linecap:round;stroke-linejoin:miter;stroke-miterlimit:4;stroke-dasharray:none;stroke-opacity:1" />
    <path
       id="path4304"
       d="m 129.44341,122.01738 0,34.28572"
       style="fill:none;fill-rule:evenodd;stroke:#000000;stroke-width:3;stroke-linecap:butt;stroke-linejoin:miter;stroke-miterlimit:4;stroke-dasharray:none;stroke-opacity:1" />
    <path
       id="path4306"
       d="m 129.80056,177.73167 0,53.57143"
       style="fill:none;fill-rule:evenodd;stroke:#000000;stroke-width:3;stroke-linecap:butt;stroke-linejoin:miter;stroke-miterlimit:4;stroke-dasharray:none;stroke-opacity:1" />
    <path
       id="path4308"
       d="m 129.08627,253.08881 0,17.85714"
       style="fill:none;fill-rule:evenodd;stroke:#000000;stroke-width:3;stroke-linecap:butt;stroke-linejoin:miter;stroke-miterlimit:4;stroke-dasharray:none;stroke-opacity:1" />
    <circle
       r="43.437851"
       cy="225.55235"
       cx="424.76913"
       id="path4361"
       style="fill:none;fill-opacity:1;stroke:#000000;stroke-width:3;stroke-miterlimit:4;stroke-dasharray:none;stroke-dashoffset:0;stroke-opacity:1" />
    <g
       id="text4363"
       style="font-style:normal;font-weight:normal;font-size:52.20693588px;line-height:125%;font-family:sans-serif;letter-spacing:0px;word-spacing:0px;fill:#8c0000;fill-opacity:1;stroke:none;stroke-width:3;stroke-linecap:butt;stroke-linejoin:miter;stroke-opacity:1;stroke-miterlimit:4;stroke-dasharray:none">
      <path
         id="path4420"
         style="stroke-width:3;stroke-miterlimit:4;stroke-dasharray:none;stroke:none;stroke-opacity:1;fill:#000000;fill-opacity:1"
         d="m 408.33952,205.42635 7.673,0 9.71232,25.89954 9.76331,-25.89954 7.67299,0 0,38.05906 -5.02186,0 0,-33.41957 -9.81429,26.10346 -5.17481,0 -9.81429,-26.10346 0,33.41957 -4.99637,0 0,-38.05906 z" />
    </g>
    <path
       id="path4369"
       d="m 425,123.57159 0,-19.94669 -244.95179,0"
       style="fill:none;fill-rule:evenodd;stroke:#000000;stroke-width:3;stroke-linecap:round;stroke-linejoin:miter;stroke-miterlimit:4;stroke-dasharray:none;stroke-opacity:1" />
    <path
       id="path4371"
       d="m 425,327.57306 0,29.03339 -192.77792,0"
       style="fill:none;fill-rule:evenodd;stroke:#000000;stroke-width:3;stroke-linecap:butt;stroke-linejoin:miter;stroke-miterlimit:4;stroke-dasharray:none;stroke-opacity:1" />
    <path
       id="path4473"
       d="m 180.34074,205.21565 94.65926,0 0,152.14657"
       style="fill:none;fill-rule:evenodd;stroke:#000000;stroke-width:3;stroke-linecap:round;stroke-linejoin:miter;stroke-miterlimit:4;stroke-dasharray:none;stroke-opacity:1" />
    <path
       id="path4473-7"
       d="m 180.08565,255.85509 140.88898,0 0,-152.14658"
       style="display:inline;fill:none;fill-rule:evenodd;stroke:#000000;stroke-width:3;stroke-linecap:round;stroke-linejoin:miter;stroke-miterlimit:4;stroke-dasharray:none;stroke-opacity:1" />
    <circle
       r="3.057399"
       cy="103.87873"
       cx="320.70685"
       id="path4490"
       style="fill:#000000;fill-opacity:1;stroke:#000000;stroke-width:1.8344394;stroke-miterlimit:4;stroke-dasharray:none;stroke-dashoffset:0;stroke-opacity:1" />
    <circle
       r="3.057399"
       cy="355.84302"
       cx="274.814"
       id="path4490-3"
       style="display:inline;fill:#000000;fill-opacity:1;stroke:#000000;stroke-width:1.8344394;stroke-miterlimit:4;stroke-dasharray:none;stroke-dashoffset:0;stroke-opacity:1" />
    <path
       id="path4579"
       d="m 425,122.36222 0,60"
       style="fill:none;fill-rule:evenodd;stroke:#000000;stroke-width:3;stroke-linecap:butt;stroke-linejoin:miter;stroke-opacity:1;stroke-miterlimit:4;stroke-dasharray:none" />
    <path
       id="path4579-5"
       d="m 424.94669,268.12366 0,60"
       style="display:inline;fill:none;fill-rule:evenodd;stroke:#000000;stroke-width:3;stroke-linecap:butt;stroke-linejoin:miter;stroke-miterlimit:4;stroke-dasharray:none;stroke-opacity:1" />
    <path
       d="m -10,91.647934 0.07813,-29.55357 m -10.078124,14.55357 10.01674,-14.55357 0.09317,0.0112 9.97936797,14.5424"
       style="fill:none;fill-rule:evenodd;stroke:#000000;stroke-width:3;stroke-linecap:round;stroke-linejoin:round;stroke-miterlimit:4;stroke-dasharray:none;stroke-opacity:1"
       id="path4598" />
    <path
       id="path4658"
       d="m -25.09011,375.02067 29.9999997,0 -14.9999997,15 z"
       style="fill:none;fill-rule:evenodd;stroke:#000000;stroke-width:3;stroke-linecap:round;stroke-linejoin:round;stroke-miterlimit:4;stroke-dasharray:none;stroke-opacity:1" />
    <path
       id="path4660"
       d="m 79.567499,306.09953 -89.5674989,0 0,55.04705"
       style="fill:none;fill-rule:evenodd;stroke:#000000;stroke-width:3;stroke-linecap:round;stroke-linejoin:miter;stroke-miterlimit:4;stroke-dasharray:none;stroke-opacity:1" />
    <path
       id="path4662"
       d="m -9.9999999,374.36222 0,-14"
       style="fill:none;fill-rule:evenodd;stroke:#000000;stroke-width:3;stroke-linecap:butt;stroke-linejoin:miter;stroke-opacity:1;stroke-miterlimit:4;stroke-dasharray:none" />
    <path
       id="path4683"
       d="m -9.9999999,92.362225 0,62.020305 88.7373079,0"
       style="fill:none;fill-rule:evenodd;stroke:#000000;stroke-width:3;stroke-linecap:round;stroke-linejoin:miter;stroke-miterlimit:4;stroke-dasharray:none;stroke-opacity:1" />
    <text
       id="text4685"
       y="80.933678"
       x="-120.71429"
       style="font-style:normal;font-weight:normal;font-size:40px;line-height:125%;font-family:sans-serif;letter-spacing:0px;word-spacing:0px;fill:#000000;fill-opacity:1;stroke:none;stroke-width:1px;stroke-linecap:butt;stroke-linejoin:miter;stroke-opacity:1"
       xml:space="preserve"><tspan
         style="font-size:25px"
         y="80.933678"
         x="-120.71429"
         id="tspan4687">+12V</tspan></text>
    <text
       id="text4689"
       y="384.50507"
       x="-105.71429"
       style="font-style:normal;font-weight:normal;font-size:40px;line-height:125%;font-family:sans-serif;letter-spacing:0px;word-spacing:0px;fill:#000000;fill-opacity:1;stroke:none;stroke-width:1px;stroke-linecap:butt;stroke-linejoin:miter;stroke-opacity:1"
       xml:space="preserve"><tspan
         style="font-size:25px"
         y="384.50507"
         x="-105.71429"
         id="tspan4691">GND</tspan></text>
  </g>
  <g
     style="display:none"
     id="layer2">
    <g
       id="text4226"
       style="font-style:normal;font-weight:normal;font-size:40px;line-height:125%;font-family:sans-serif;letter-spacing:0px;word-spacing:0px;display:inline;fill:#006d00;fill-opacity:1;stroke:none;stroke-width:1px;stroke-linecap:butt;stroke-linejoin:miter;stroke-opacity:1">
      <path
         id="path4269"
         style="font-size:70px;fill:#006d00;fill-opacity:1"
         d="m 439.48871,255.57721 0,39.68262 8.33984,0 q 10.56153,0 15.44922,-4.78516 4.92188,-4.78516 4.92188,-15.10742 0,-10.25391 -4.92188,-15.00488 -4.88769,-4.78516 -15.44922,-4.78516 l -8.33984,0 z m -6.9043,-5.67383 14.18457,0 q 14.83399,0 21.77246,6.18652 6.93848,6.15235 6.93848,19.27735 0,13.19336 -6.97266,19.37988 -6.97265,6.18652 -21.73828,6.18652 l -14.18457,0 0,-51.03027 z" />
      <path
         id="path4271"
         style="font-size:70px;fill:#006d00;fill-opacity:1"
         d="m 493.3559,255.57721 0,19.1748 8.68164,0 q 4.81933,0 7.45117,-2.49511 2.63183,-2.49512 2.63183,-7.10938 0,-4.58008 -2.63183,-7.07519 -2.63184,-2.49512 -7.45117,-2.49512 l -8.68164,0 z m -6.9043,-5.67383 15.58594,0 q 8.5791,0 12.9541,3.89649 4.40918,3.8623 4.40918,11.34765 0,7.55371 -4.40918,11.41602 -4.375,3.8623 -12.9541,3.8623 l -8.68164,0 0,20.50781 -6.9043,0 0,-51.03027 z" />
      <path
         id="path4273"
         style="font-size:70px;fill:#006d00;fill-opacity:1"
         d="m 535.60199,255.57721 0,39.68262 8.33984,0 q 10.56153,0 15.44922,-4.78516 4.92188,-4.78516 4.92188,-15.10742 0,-10.25391 -4.92188,-15.00488 -4.88769,-4.78516 -15.44922,-4.78516 l -8.33984,0 z m -6.9043,-5.67383 14.18457,0 q 14.83399,0 21.77246,6.18652 6.93848,6.15235 6.93848,19.27735 0,13.19336 -6.97266,19.37988 -6.97265,6.18652 -21.73828,6.18652 l -14.18457,0 0,-51.03027 z" />
      <path
         id="path4275"
         style="font-size:70px;fill:#006d00;fill-opacity:1"
         d="m 575.48969,249.90338 43.16894,0 0,5.81055 -18.11523,0 0,45.21972 -6.93848,0 0,-45.21972 -18.11523,0 0,-5.81055 z" />
    </g>
    <rect
       y="72.362206"
       x="17.142857"
       height="409.28571"
       width="610.71429"
       id="rect3422"
       style="display:inline;fill:none;fill-rule:evenodd;stroke:#808080;stroke-width:4.80000019;stroke-linecap:butt;stroke-linejoin:miter;stroke-miterlimit:4;stroke-dasharray:28.8, 4.8;stroke-dashoffset:0;stroke-opacity:1" />
    <path
       id="path4224"
       d="m 423.57143,71.647918 0,407.857142"
       style="display:inline;fill:none;fill-rule:evenodd;stroke:#808080;stroke-width:4.80000019;stroke-linecap:butt;stroke-linejoin:miter;stroke-miterlimit:4;stroke-dasharray:28.8, 4.8;stroke-dashoffset:0;stroke-opacity:1" />
  </g>
</svg>
